# Blender v2.81 (sub 16) OBJ File: 'trafficcone.blend'
# www.blender.org
mtllib Traffic_Cone.mtl
o Cone
v -0.000000 0.553205 -0.039585
v 0.007723 0.553205 -0.038824
v 0.015148 0.553205 -0.036572
v 0.021992 0.553205 -0.032914
v 0.027991 0.553205 -0.027991
v 0.032914 0.553205 -0.021992
v 0.036572 0.553205 -0.015148
v 0.038824 0.553205 -0.007723
v 0.039585 0.553205 -0.000000
v 0.038824 0.553205 0.007723
v 0.036572 0.553205 0.015148
v 0.032914 0.553205 0.021992
v 0.027991 0.553205 0.027991
v 0.021992 0.553205 0.032914
v 0.015148 0.553205 0.036572
v 0.007723 0.553205 0.038824
v -0.000000 0.553205 0.039585
v -0.007723 0.553205 0.038824
v -0.015149 0.553205 0.036572
v -0.021992 0.553205 0.032914
v -0.027991 0.553205 0.027991
v -0.032914 0.553205 0.021992
v -0.000000 0.552809 0.000000
v -0.036572 0.553205 0.015148
v -0.038824 0.553205 0.007723
v -0.039585 0.553205 -0.000000
v -0.038824 0.553205 -0.007723
v -0.036572 0.553205 -0.015149
v -0.032914 0.553205 -0.021992
v -0.027991 0.553205 -0.027991
v -0.021992 0.553205 -0.032914
v -0.015148 0.553205 -0.036572
v -0.007722 0.553205 -0.038824
v 0.032586 0.023912 -0.163822
v -0.000000 0.023912 -0.167032
v 0.063920 0.023912 -0.154317
v 0.092798 0.023912 -0.138882
v 0.118109 0.023912 -0.118109
v 0.138882 0.023912 -0.092798
v 0.154317 0.023912 -0.063920
v 0.163822 0.023912 -0.032586
v 0.167032 0.023912 -0.000000
v 0.163822 0.023912 0.032586
v 0.154317 0.023912 0.063920
v 0.138882 0.023912 0.092798
v 0.118109 0.023912 0.118109
v 0.092798 0.023912 0.138882
v 0.063920 0.023912 0.154317
v 0.032586 0.023912 0.163822
v -0.000000 0.023912 0.167032
v -0.032586 0.023912 0.163822
v -0.063920 0.023912 0.154317
v -0.092798 0.023912 0.138882
v -0.118109 0.023912 0.118109
v -0.138882 0.023912 0.092798
v -0.154317 0.023912 0.063920
v -0.163822 0.023912 0.032586
v -0.167032 0.023912 -0.000000
v -0.163822 0.023912 -0.032586
v -0.154317 0.023912 -0.063920
v -0.138882 0.023912 -0.092798
v -0.118109 0.023912 -0.118109
v -0.092798 0.023912 -0.138882
v -0.063920 0.023912 -0.154317
v -0.032586 0.023912 -0.163822
v -0.205000 -0.003642 0.205000
v -0.205000 0.024651 0.205000
v -0.205000 -0.003642 -0.205000
v -0.205000 0.024651 -0.205000
v 0.205000 -0.003642 0.205000
v 0.205000 0.024651 0.205000
v 0.205000 -0.003642 -0.205000
v 0.205000 0.024651 -0.205000
v -0.000000 0.029646 -0.151968
v 0.029647 0.029646 -0.149048
v 0.058156 0.029646 -0.140400
v 0.084429 0.029646 -0.126357
v 0.107457 0.029646 -0.107457
v 0.126357 0.029646 -0.084429
v 0.140400 0.029646 -0.058156
v 0.149048 0.029646 -0.029647
v 0.151968 0.029646 -0.000000
v 0.149048 0.029646 0.029647
v 0.140400 0.029646 0.058156
v 0.126357 0.029646 0.084429
v 0.107457 0.029646 0.107457
v 0.084429 0.029646 0.126357
v 0.058156 0.029646 0.140400
v 0.029647 0.029646 0.149048
v -0.000000 0.029646 0.151968
v -0.029648 0.029646 0.149048
v -0.058156 0.029646 0.140400
v -0.084429 0.029646 0.126357
v -0.107458 0.029646 0.107457
v -0.126357 0.029646 0.084429
v -0.140400 0.029646 0.058155
v -0.149048 0.029646 0.029647
v -0.151968 0.029646 -0.000000
v -0.149048 0.029646 -0.029648
v -0.140400 0.029646 -0.058156
v -0.126357 0.029646 -0.084429
v -0.107457 0.029646 -0.107458
v -0.084429 0.029646 -0.126357
v -0.058155 0.029646 -0.140400
v -0.029647 0.029646 -0.149048
v -0.000000 0.560690 -0.023568
v 0.004598 0.560690 -0.023116
v 0.009019 0.560690 -0.021774
v 0.013094 0.560690 -0.019596
v 0.016666 0.560690 -0.016665
v 0.019596 0.560690 -0.013094
v 0.021774 0.560690 -0.009019
v 0.023116 0.560690 -0.004598
v 0.023568 0.560690 0.000000
v 0.023116 0.560690 0.004598
v 0.021774 0.560690 0.009019
v 0.019596 0.560690 0.013094
v 0.016665 0.560690 0.016665
v 0.013094 0.560690 0.019596
v 0.009019 0.560690 0.021774
v 0.004598 0.560690 0.023116
v -0.000000 0.560690 0.023569
v -0.004598 0.560690 0.023116
v -0.009019 0.560690 0.021774
v -0.013094 0.560690 0.019596
v -0.016665 0.560690 0.016666
v -0.019597 0.560690 0.013094
v -0.021775 0.560690 0.009019
v -0.023116 0.560690 0.004598
v -0.023568 0.560690 0.000000
v -0.023116 0.560690 -0.004598
v -0.021774 0.560690 -0.009020
v -0.019596 0.560690 -0.013094
v -0.016666 0.560690 -0.016665
v -0.013094 0.560690 -0.019596
v -0.009019 0.560690 -0.021774
v -0.004598 0.560690 -0.023116
vt 0.461290 0.978179
vt 0.466848 0.977631
vt 0.467400 0.980402
vt 0.461290 0.981004
vt 0.275616 0.832574
vt 0.275616 0.775540
vt 0.286742 0.831479
vt 0.441141 0.929536
vt 0.437597 0.933854
vt 0.435249 0.932285
vt 0.439144 0.927539
vt 0.297442 0.828233
vt 0.434964 0.960589
vt 0.437597 0.965515
vt 0.435249 0.967085
vt 0.432355 0.961670
vt 0.307302 0.822962
vt 0.477120 0.925992
vt 0.472194 0.923359
vt 0.473275 0.920750
vt 0.478689 0.923644
vt 0.315945 0.815869
vt 0.487615 0.960589
vt 0.489236 0.955244
vt 0.492007 0.955795
vt 0.490224 0.961670
vt 0.323038 0.807227
vt 0.445459 0.925992
vt 0.443890 0.923644
vt 0.328308 0.797367
vt 0.433343 0.955244
vt 0.430572 0.955795
vt 0.331554 0.786667
vt 0.481438 0.929536
vt 0.483435 0.927539
vt 0.332650 0.775540
vt 0.484982 0.965515
vt 0.487330 0.967084
vt 0.331554 0.764413
vt 0.450385 0.923359
vt 0.449304 0.920750
vt 0.328308 0.753715
vt 0.432795 0.949685
vt 0.429971 0.949685
vt 0.323038 0.743854
vt 0.484982 0.933854
vt 0.487330 0.932285
vt 0.315945 0.735211
vt 0.455731 0.977631
vt 0.455180 0.980402
vt 0.307302 0.728119
vt 0.481438 0.969833
vt 0.483435 0.971830
vt 0.297442 0.722848
vt 0.450385 0.976010
vt 0.449304 0.978620
vt 0.286742 0.719602
vt 0.455730 0.921738
vt 0.455179 0.918967
vt 0.275615 0.718506
vt 0.433343 0.944126
vt 0.430572 0.943575
vt 0.264489 0.719602
vt 0.487615 0.938780
vt 0.490224 0.937699
vt 0.253789 0.722848
vt 0.477120 0.973377
vt 0.478689 0.975725
vt 0.243929 0.728118
vt 0.445459 0.973377
vt 0.443890 0.975725
vt 0.235287 0.735211
vt 0.461289 0.921190
vt 0.461289 0.918366
vt 0.228193 0.743855
vt 0.434964 0.938780
vt 0.432355 0.937699
vt 0.222922 0.753715
vt 0.489236 0.944126
vt 0.492007 0.943575
vt 0.219677 0.764413
vt 0.472194 0.976010
vt 0.473275 0.978620
vt 0.218581 0.775540
vt 0.441141 0.969833
vt 0.439144 0.971830
vt 0.219677 0.786667
vt 0.466848 0.921738
vt 0.467400 0.918967
vt 0.222923 0.797367
vt 0.228193 0.807227
vt 0.489784 0.949685
vt 0.492608 0.949685
vt 0.235286 0.815869
vt 0.243929 0.822963
vt 0.253790 0.828233
vt 0.264489 0.831479
vt 0.423890 0.943354
vt 0.423890 0.948659
vt 0.500766 0.948659
vt 0.500766 0.943354
vt 0.339844 0.941406
vt 0.897461 0.945312
vt 0.727539 0.955078
vt 0.321289 0.952148
vt 0.500766 0.943354
vt 0.500766 0.948659
vt 0.423890 0.948659
vt 0.423890 0.943354
vt 0.499728 0.943354
vt 0.499728 0.948659
vt 0.422851 0.948659
vt 0.422851 0.943354
vt 0.422851 0.988123
vt 0.499728 0.988123
vt 0.499728 0.911246
vt 0.422851 0.911246
vt 0.499728 0.988123
vt 0.422851 0.988123
vt 0.422851 0.911246
vt 0.499728 0.911246
vt 0.495079 0.889265
vt 0.625426 0.889265
vt 0.634006 0.020917
vt 0.501230 0.020917
vt 0.750765 0.889265
vt 0.761679 0.020917
vt 0.866278 0.889265
vt 0.879343 0.020917
vt 0.967525 0.889265
vt 0.982476 0.020917
vt 0.866278 0.889264
vt 0.879343 0.020917
vt 0.750765 0.889265
vt 0.761679 0.020917
vt 0.625426 0.889264
vt 0.634006 0.020917
vt 0.495079 0.889264
vt 0.501230 0.020917
vt 0.364732 0.889264
vt 0.368455 0.020917
vt 0.239392 0.889264
vt 0.240782 0.020917
vt 0.123879 0.889265
vt 0.123118 0.020917
vt 0.337597 0.889264
vt 0.661646 0.020917
vt 0.866278 0.889265
vt 0.879343 0.020917
vt 0.750766 0.889265
vt 0.761679 0.020917
vt 0.625427 0.889265
vt 0.634006 0.020917
vt 0.495079 0.889264
vt 0.501230 0.020917
vt 0.364731 0.889264
vt 0.368455 0.020917
vt 0.239392 0.889265
vt 0.240782 0.020917
vt 0.123879 0.889264
vt 0.123118 0.020917
vt 0.022632 0.889264
vt 0.019985 0.020917
vt 0.123881 0.889265
vt 0.123118 0.020917
vt 0.239392 0.889264
vt 0.240782 0.020917
vt 0.364732 0.889264
vt 0.368455 0.020917
vt 0.495080 0.889265
vt 0.501231 0.020917
vt 0.625427 0.889265
vt 0.634007 0.020917
vt 0.750766 0.889265
vt 0.761679 0.020917
vt 0.866278 0.889264
vt 0.879343 0.020917
vt 0.652561 0.889265
vt 0.340816 0.020917
vt 0.123881 0.889265
vt 0.123119 0.020917
vt 0.239394 0.889265
vt 0.240783 0.020917
vt 0.364734 0.889265
vt 0.368456 0.020917
vt 0.294304 0.869493
vt 0.275616 0.871333
vt 0.312274 0.864041
vt 0.328835 0.855189
vt 0.343351 0.843276
vt 0.355264 0.828760
vt 0.364117 0.812199
vt 0.369568 0.794229
vt 0.371408 0.775541
vt 0.369568 0.756852
vt 0.364117 0.738882
vt 0.355264 0.722321
vt 0.343351 0.707805
vt 0.328835 0.695892
vt 0.312274 0.687039
vt 0.294304 0.681588
vt 0.275616 0.679748
vt 0.256927 0.681588
vt 0.238957 0.687039
vt 0.222396 0.695892
vt 0.207880 0.707805
vt 0.195967 0.722321
vt 0.187114 0.738882
vt 0.181663 0.756852
vt 0.179823 0.775541
vt 0.181663 0.794229
vt 0.187115 0.812199
vt 0.195967 0.828760
vt 0.207880 0.843276
vt 0.222396 0.855189
vt 0.238958 0.864042
vt 0.256928 0.869493
vn 0.0350 0.9340 -0.3555
vn -0.0312 0.9479 0.3170
vn -0.2762 0.9340 0.2266
vn -0.0925 0.9479 0.3048
vn -0.3151 0.9340 -0.1684
vn -0.1501 0.9479 0.2809
vn 0.1684 0.9340 0.3151
vn -0.2021 0.9479 0.2462
vn 0.3419 0.9340 -0.1037
vn -0.2462 0.9479 0.2021
vn -0.2266 0.9340 0.2762
vn -0.2809 0.9479 0.1501
vn -0.3419 0.9340 -0.1037
vn -0.3048 0.9479 0.0925
vn 0.2266 0.9340 0.2762
vn -0.3170 0.9479 0.0312
vn 0.3151 0.9340 -0.1684
vn -0.3170 0.9479 -0.0312
vn -0.1684 0.9340 0.3151
vn -0.3048 0.9479 -0.0924
vn -0.3555 0.9340 -0.0350
vn -0.2809 0.9479 -0.1502
vn 0.2762 0.9340 0.2266
vn -0.2462 0.9479 -0.2021
vn -0.0350 0.9340 -0.3555
vn -0.2021 0.9479 -0.2462
vn 0.2762 0.9340 -0.2266
vn -0.1501 0.9479 -0.2809
vn -0.1037 0.9340 -0.3419
vn -0.0925 0.9479 -0.3048
vn -0.1037 0.9340 0.3419
vn -0.0312 0.9479 -0.3170
vn -0.3555 0.9340 0.0350
vn 0.0312 0.9479 -0.3170
vn 0.3151 0.9340 0.1684
vn 0.0925 0.9479 -0.3048
vn 0.2266 0.9340 -0.2762
vn 0.1501 0.9479 -0.2809
vn -0.1684 0.9340 -0.3151
vn 0.2021 0.9479 -0.2462
vn -0.0350 0.9340 0.3555
vn 0.2462 0.9479 -0.2020
vn -0.3419 0.9340 0.1037
vn 0.2809 0.9479 -0.1502
vn 0.3419 0.9340 0.1037
vn 0.3048 0.9479 -0.0925
vn 0.1684 0.9340 -0.3151
vn 0.3170 0.9479 -0.0312
vn -0.2266 0.9340 -0.2762
vn 0.3170 0.9479 0.0312
vn 0.0350 0.9340 0.3555
vn 0.3048 0.9479 0.0925
vn -0.3151 0.9340 0.1684
vn 0.2809 0.9479 0.1501
vn 0.3555 0.9340 0.0350
vn 0.2462 0.9479 0.2021
vn 0.1037 0.9340 -0.3419
vn 0.2021 0.9479 0.2462
vn -0.2762 0.9340 -0.2266
vn 0.1501 0.9479 0.2809
vn 0.1037 0.9340 0.3419
vn 0.0925 0.9479 0.3048
vn 0.3555 0.9340 -0.0350
vn 0.0312 0.9479 0.3170
vn -1.0000 0.0000 0.0000
vn 0.0000 0.0000 -1.0000
vn 1.0000 0.0000 0.0000
vn 0.0000 0.0000 1.0000
vn 0.0000 -1.0000 0.0000
vn 0.0000 1.0000 0.0000
vn 0.0959 0.2089 -0.9732
vn 0.2839 0.2089 -0.9358
vn 0.4610 0.2089 -0.8625
vn 0.6204 0.2089 -0.7560
vn 0.7560 0.2089 -0.6204
vn 0.8625 0.2089 -0.4610
vn 0.9358 0.2089 -0.2839
vn 0.9732 0.2089 -0.0959
vn 0.9732 0.2089 0.0959
vn 0.9358 0.2089 0.2839
vn 0.8625 0.2089 0.4610
vn 0.7560 0.2089 0.6204
vn 0.6204 0.2089 0.7560
vn 0.4610 0.2089 0.8625
vn 0.2839 0.2089 0.9358
vn 0.0959 0.2089 0.9732
vn -0.0959 0.2089 0.9732
vn -0.2839 0.2089 0.9358
vn -0.4610 0.2089 0.8625
vn -0.6204 0.2089 0.7560
vn -0.7560 0.2089 0.6204
vn -0.8625 0.2089 0.4610
vn -0.9358 0.2089 0.2839
vn -0.9732 0.2089 0.0959
vn -0.9732 0.2089 -0.0959
vn -0.9358 0.2089 -0.2839
vn -0.8625 0.2089 -0.4610
vn -0.7560 0.2089 -0.6204
vn -0.6204 0.2089 -0.7560
vn -0.4610 0.2089 -0.8625
vn -0.2839 0.2089 -0.9358
vn -0.0959 0.2089 -0.9732
vn 0.0417 0.9052 -0.4230
vn 0.1234 0.9052 -0.4068
vn 0.2004 0.9052 -0.3749
vn 0.2697 0.9052 -0.3286
vn 0.3286 0.9052 -0.2697
vn 0.3749 0.9052 -0.2004
vn 0.4068 0.9052 -0.1234
vn 0.4230 0.9052 -0.0417
vn 0.4230 0.9052 0.0417
vn 0.4068 0.9052 0.1234
vn 0.3749 0.9052 0.2004
vn 0.3286 0.9052 0.2696
vn 0.2697 0.9052 0.3286
vn 0.2004 0.9052 0.3749
vn 0.1234 0.9052 0.4068
vn 0.0417 0.9052 0.4230
vn -0.0417 0.9052 0.4230
vn -0.1234 0.9052 0.4068
vn -0.2004 0.9052 0.3749
vn -0.2697 0.9052 0.3286
vn -0.3286 0.9052 0.2697
vn -0.3749 0.9052 0.2004
vn -0.4068 0.9052 0.1234
vn -0.4230 0.9052 0.0417
vn -0.4230 0.9052 -0.0417
vn -0.4068 0.9052 -0.1234
vn -0.3749 0.9052 -0.2004
vn -0.3286 0.9052 -0.2696
vn -0.2697 0.9052 -0.3286
vn -0.2004 0.9052 -0.3749
vn -0.1234 0.9052 -0.4068
vn -0.0417 0.9052 -0.4230
usemtl None
s off
f 74/1/1 75/2/1 34/3/1 35/4/1
f 106/5/2 23/6/2 107/7/2
f 94/8/3 95/9/3 55/10/3 54/11/3
f 107/7/4 23/6/4 108/12/4
f 100/13/5 101/14/5 61/15/5 60/16/5
f 108/12/6 23/6/6 109/17/6
f 87/18/7 88/19/7 48/20/7 47/21/7
f 109/17/8 23/6/8 110/22/8
f 80/23/9 81/24/9 41/25/9 40/26/9
f 110/22/10 23/6/10 111/27/10
f 93/28/11 94/8/11 54/11/11 53/29/11
f 111/27/12 23/6/12 112/30/12
f 99/31/13 100/13/13 60/16/13 59/32/13
f 112/30/14 23/6/14 113/33/14
f 86/34/15 87/18/15 47/21/15 46/35/15
f 113/33/16 23/6/16 114/36/16
f 79/37/17 80/23/17 40/26/17 39/38/17
f 114/36/18 23/6/18 115/39/18
f 92/40/19 93/28/19 53/29/19 52/41/19
f 115/39/20 23/6/20 116/42/20
f 98/43/21 99/31/21 59/32/21 58/44/21
f 116/42/22 23/6/22 117/45/22
f 85/46/23 86/34/23 46/35/23 45/47/23
f 117/45/24 23/6/24 118/48/24
f 105/49/25 74/1/25 35/4/25 65/50/25
f 118/48/26 23/6/26 119/51/26
f 78/52/27 79/37/27 39/38/27 38/53/27
f 119/51/28 23/6/28 120/54/28
f 104/55/29 105/49/29 65/50/29 64/56/29
f 120/54/30 23/6/30 121/57/30
f 91/58/31 92/40/31 52/41/31 51/59/31
f 121/57/32 23/6/32 122/60/32
f 97/61/33 98/43/33 58/44/33 57/62/33
f 122/60/34 23/6/34 123/63/34
f 84/64/35 85/46/35 45/47/35 44/65/35
f 123/63/36 23/6/36 124/66/36
f 77/67/37 78/52/37 38/53/37 37/68/37
f 124/66/38 23/6/38 125/69/38
f 103/70/39 104/55/39 64/56/39 63/71/39
f 125/69/40 23/6/40 126/72/40
f 90/73/41 91/58/41 51/59/41 50/74/41
f 126/72/42 23/6/42 127/75/42
f 96/76/43 97/61/43 57/62/43 56/77/43
f 127/75/44 23/6/44 128/78/44
f 83/79/45 84/64/45 44/65/45 43/80/45
f 128/78/46 23/6/46 129/81/46
f 76/82/47 77/67/47 37/68/47 36/83/47
f 129/81/48 23/6/48 130/84/48
f 102/85/49 103/70/49 63/71/49 62/86/49
f 130/84/50 23/6/50 131/87/50
f 89/88/51 90/73/51 50/74/51 49/89/51
f 131/87/52 23/6/52 132/90/52
f 95/9/53 96/76/53 56/77/53 55/10/53
f 132/90/54 23/6/54 133/91/54
f 82/92/55 83/79/55 43/80/55 42/93/55
f 133/91/56 23/6/56 134/94/56
f 75/2/57 76/82/57 36/83/57 34/3/57
f 134/94/58 23/6/58 135/95/58
f 101/14/59 102/85/59 62/86/59 61/15/59
f 135/95/60 23/6/60 136/96/60
f 88/19/61 89/88/61 49/89/61 48/20/61
f 136/96/62 23/6/62 137/97/62
f 81/24/63 82/92/63 42/93/63 41/25/63
f 137/97/64 23/6/64 106/5/64
f 66/98/65 67/99/65 69/100/65 68/101/65
f 68/102/66 69/103/66 73/104/66 72/105/66
f 72/106/67 73/107/67 71/108/67 70/109/67
f 70/110/68 71/111/68 67/112/68 66/113/68
f 68/114/69 72/115/69 70/116/69 66/117/69
f 73/118/70 69/119/70 67/120/70 71/121/70
f 1/122/71 2/123/71 75/124/71 74/125/71
f 2/123/72 3/126/72 76/127/72 75/124/72
f 3/126/73 4/128/73 77/129/73 76/127/73
f 4/128/74 5/130/74 78/131/74 77/129/74
f 5/130/75 6/132/75 79/133/75 78/131/75
f 6/132/76 7/134/76 80/135/76 79/133/76
f 7/134/77 8/136/77 81/137/77 80/135/77
f 8/136/78 9/138/78 82/139/78 81/137/78
f 9/138/79 10/140/79 83/141/79 82/139/79
f 10/140/80 11/142/80 84/143/80 83/141/80
f 11/142/81 12/144/81 85/145/81 84/143/81
f 12/144/82 13/146/82 86/147/82 85/145/82
f 13/146/83 14/148/83 87/149/83 86/147/83
f 14/148/84 15/150/84 88/151/84 87/149/84
f 15/150/85 16/152/85 89/153/85 88/151/85
f 16/152/86 17/154/86 90/155/86 89/153/86
f 17/154/87 18/156/87 91/157/87 90/155/87
f 18/156/88 19/158/88 92/159/88 91/157/88
f 19/158/89 20/160/89 93/161/89 92/159/89
f 20/160/90 21/162/90 94/163/90 93/161/90
f 21/162/91 22/164/91 95/165/91 94/163/91
f 22/164/92 24/166/92 96/167/92 95/165/92
f 24/166/93 25/168/93 97/169/93 96/167/93
f 25/168/94 26/170/94 98/171/94 97/169/94
f 26/170/95 27/172/95 99/173/95 98/171/95
f 27/172/96 28/174/96 100/175/96 99/173/96
f 28/174/97 29/176/97 101/177/97 100/175/97
f 29/176/98 30/178/98 102/179/98 101/177/98
f 30/178/99 31/180/99 103/181/99 102/179/99
f 31/180/100 32/182/100 104/183/100 103/181/100
f 32/182/101 33/184/101 105/185/101 104/183/101
f 33/184/102 1/122/102 74/125/102 105/185/102
f 106/5/103 107/7/103 2/186/103 1/187/103
f 107/7/104 108/12/104 3/188/104 2/186/104
f 108/12/105 109/17/105 4/189/105 3/188/105
f 109/17/106 110/22/106 5/190/106 4/189/106
f 110/22/107 111/27/107 6/191/107 5/190/107
f 111/27/108 112/30/108 7/192/108 6/191/108
f 112/30/109 113/33/109 8/193/109 7/192/109
f 113/33/110 114/36/110 9/194/110 8/193/110
f 114/36/111 115/39/111 10/195/111 9/194/111
f 115/39/112 116/42/112 11/196/112 10/195/112
f 116/42/113 117/45/113 12/197/113 11/196/113
f 117/45/114 118/48/114 13/198/114 12/197/114
f 118/48/115 119/51/115 14/199/115 13/198/115
f 119/51/116 120/54/116 15/200/116 14/199/116
f 120/54/117 121/57/117 16/201/117 15/200/117
f 121/57/118 122/60/118 17/202/118 16/201/118
f 122/60/119 123/63/119 18/203/119 17/202/119
f 123/63/120 124/66/120 19/204/120 18/203/120
f 124/66/121 125/69/121 20/205/121 19/204/121
f 125/69/122 126/72/122 21/206/122 20/205/122
f 126/72/123 127/75/123 22/207/123 21/206/123
f 127/75/124 128/78/124 24/208/124 22/207/124
f 128/78/125 129/81/125 25/209/125 24/208/125
f 129/81/126 130/84/126 26/210/126 25/209/126
f 130/84/127 131/87/127 27/211/127 26/210/127
f 131/87/128 132/90/128 28/212/128 27/211/128
f 132/90/129 133/91/129 29/213/129 28/212/129
f 133/91/130 134/94/130 30/214/130 29/213/130
f 134/94/131 135/95/131 31/215/131 30/214/131
f 135/95/132 136/96/132 32/216/132 31/215/132
f 136/96/133 137/97/133 33/217/133 32/216/133
f 137/97/134 106/5/134 1/187/134 33/217/134
