# Blender v2.81 (sub 16) OBJ File: ''
# www.blender.org
mtllib bouy.mtl
o Cylinder_Cylinder.006
v 2.583068 -0.000000 -1.000000
v 2.583068 0.324699 -0.945817
v 2.583068 0.614213 -0.789141
v 2.583068 0.837166 -0.546948
v 2.583068 0.969400 -0.245485
v 2.583068 0.996584 0.082579
v 2.583068 0.915773 0.401695
v 2.583068 0.735724 0.677282
v 2.583068 0.475947 0.879474
v 2.583068 0.164594 0.986361
v 2.583068 -0.164595 0.986361
v 2.583068 -0.475948 0.879474
v 2.583068 -0.735724 0.677282
v 2.583068 -0.915774 0.401695
v 2.583068 -0.996585 0.082579
v 2.583068 -0.969400 -0.245486
v 2.583068 -0.837166 -0.546949
v 2.583068 -0.614212 -0.789141
v 2.583068 -0.324698 -0.945818
v 3.000000 -0.000000 -0.401538
v 2.742272 -0.000000 -0.850691
v 3.000000 0.130379 -0.379782
v 2.742272 0.276218 -0.804598
v 3.000000 0.246630 -0.316870
v 2.742271 0.522505 -0.671314
v 3.000000 0.336154 -0.219621
v 2.742272 0.712169 -0.465284
v 3.000000 0.389251 -0.098572
v 2.742272 0.824660 -0.208832
v 3.000000 0.400167 0.033159
v 2.742272 0.847785 0.070249
v 3.000000 0.367718 0.161296
v 2.742272 0.779040 0.341718
v 3.000000 0.295421 0.271955
v 2.742272 0.625873 0.576157
v 3.000000 0.191111 0.353142
v 2.742272 0.404884 0.748160
v 3.000000 0.066091 0.396062
v 2.742271 0.140019 0.839088
v 3.000000 -0.066091 0.396062
v 2.742271 -0.140019 0.839088
v 3.000000 -0.191111 0.353142
v 2.742272 -0.404884 0.748160
v 3.000000 -0.295422 0.271954
v 2.742271 -0.625874 0.576157
v 3.000000 -0.367718 0.161296
v 2.742271 -0.779040 0.341718
v 3.000000 -0.400167 0.033159
v 2.742272 -0.847785 0.070249
v 3.000000 -0.389252 -0.098572
v 2.742271 -0.824660 -0.208833
v 3.000000 -0.336155 -0.219621
v 2.742271 -0.712169 -0.465284
v 3.000000 -0.246630 -0.316870
v 2.742271 -0.522504 -0.671315
v 3.000000 -0.130379 -0.379782
v 2.742272 -0.276218 -0.804598
v -2.399365 0.000000 -1.000000
v -2.399365 0.324700 -0.945817
v -2.399365 0.614213 -0.789141
v -2.399365 0.837167 -0.546948
v -2.399365 0.969400 -0.245485
v -2.399365 0.996585 0.082579
v -2.399365 0.915774 0.401695
v -2.399365 0.735724 0.677282
v -2.399365 0.475948 0.879474
v -2.399365 0.164595 0.986361
v -2.399365 -0.164594 0.986361
v -2.399365 -0.475947 0.879474
v -2.399365 -0.735724 0.677282
v -2.399365 -0.915773 0.401695
v -2.399365 -0.996584 0.082579
v -2.399365 -0.969400 -0.245486
v -2.399365 -0.837166 -0.546949
v -2.399365 -0.614212 -0.789141
v -2.399365 -0.324698 -0.945818
v -3.000000 -0.000000 -0.229737
v -2.771911 -0.000000 -0.724041
v -3.000000 0.074596 -0.217289
v -2.771911 0.235096 -0.684811
v -3.000000 0.141108 -0.181295
v -2.771911 0.444715 -0.571370
v -3.000000 0.192329 -0.125654
v -2.771911 0.606143 -0.396013
v -3.000000 0.222708 -0.056397
v -2.771911 0.701886 -0.177741
v -3.000000 0.228953 0.018971
v -2.771911 0.721568 0.059791
v -3.000000 0.210387 0.092284
v -2.771911 0.663058 0.290844
v -3.000000 0.169023 0.155597
v -2.771911 0.532694 0.490380
v -3.000000 0.109343 0.202048
v -2.771911 0.344606 0.636775
v -3.000000 0.037814 0.226604
v -2.771911 0.119173 0.714166
v -3.000000 -0.037813 0.226604
v -2.771911 -0.119173 0.714166
v -3.000000 -0.109343 0.202048
v -2.771911 -0.344605 0.636775
v -3.000000 -0.169023 0.155597
v -2.771911 -0.532694 0.490380
v -3.000000 -0.210387 0.092284
v -2.771911 -0.663057 0.290844
v -3.000000 -0.228952 0.018971
v -2.771911 -0.721568 0.059791
v -3.000000 -0.222707 -0.056397
v -2.771911 -0.701885 -0.177742
v -3.000000 -0.192328 -0.125654
v -2.771911 -0.606143 -0.396013
v -3.000000 -0.141107 -0.181295
v -2.771911 -0.444714 -0.571371
v -3.000000 -0.074595 -0.217290
v -2.771911 -0.235094 -0.684811
vt 0.947371 0.949948
vt 0.894737 0.534744
vt 0.947368 0.534744
vt 0.842105 0.949947
vt 0.789474 0.534744
vt 0.842105 0.534744
vt 0.789474 0.949947
vt 0.736842 0.534744
vt 0.736842 0.949947
vt 0.684211 0.534744
vt 0.684211 0.949947
vt 0.631579 0.534744
vt 0.631579 0.949948
vt 0.578948 0.534744
vt 0.578948 0.949947
vt 0.526316 0.534744
vt 0.526316 0.949947
vt 0.473684 0.534744
vt 0.473684 0.949947
vt 0.421053 0.534744
vt 0.421054 0.949950
vt 0.368421 0.534744
vt 0.368421 0.949947
vt 0.315790 0.534744
vt 0.315790 0.949950
vt 0.263158 0.534744
vt 0.263158 0.949947
vt 0.210526 0.534744
vt 0.210526 0.949947
vt 0.157895 0.534744
vt 0.157895 0.949947
vt 0.105263 0.534744
vt 0.105263 0.949947
vt 0.052632 0.534744
vt 0.052632 0.949947
vt 0.000000 0.534744
vt 0.894737 0.949949
vt 0.907760 0.990624
vt 0.846043 0.242043
vt 0.661748 0.211289
vt 0.690809 0.326049
vt 0.886884 0.510216
vt 0.834252 0.510216
vt 0.781621 0.510216
vt 0.728989 0.510216
vt 0.676358 0.510216
vt 0.623726 0.510216
vt 0.534167 0.510214
vt 0.571095 0.510216
vt 0.518463 0.510216
vt 0.465831 0.510214
vt 0.376273 0.510214
vt 0.413200 0.510216
vt 0.360568 0.510216
vt 0.307937 0.510216
vt 0.218379 0.510214
vt 0.255305 0.510216
vt 0.202674 0.510216
vt 0.150042 0.510216
vt 0.097410 0.510216
vt 0.999999 0.534744
vt 0.955221 0.510216
vt 0.992147 0.510216
vt 0.902590 0.510216
vt 0.939515 0.510216
vt 0.750000 0.346369
vt 0.794988 0.381046
vt 0.781291 0.341148
vt 0.809191 0.326049
vt 0.835101 0.359338
vt 0.865992 0.325781
vt 0.830678 0.302709
vt 0.884313 0.284013
vt 0.843421 0.273657
vt 0.888080 0.238558
vt 0.876883 0.194344
vt 0.838253 0.211289
vt 0.851937 0.156161
vt 0.820901 0.184731
vt 0.795867 0.165246
vt 0.815946 0.128146
vt 0.765862 0.154945
vt 0.772805 0.113337
vt 0.727195 0.113337
vt 0.734138 0.154945
vt 0.684056 0.128146
vt 0.704133 0.165246
vt 0.679099 0.184731
vt 0.648063 0.156161
vt 0.623117 0.194344
vt 0.611920 0.238558
vt 0.653960 0.242042
vt 0.656580 0.273657
vt 0.615687 0.284013
vt 0.634008 0.325781
vt 0.669323 0.302709
vt 0.664899 0.359338
vt 0.705012 0.381046
vt 0.718710 0.341148
vt 0.750000 0.388553
vt 0.044779 0.510216
vt 0.196550 0.263535
vt 0.290566 0.212657
vt 0.296159 0.280157
vt 0.881712 0.990622
vt 0.855126 0.990622
vt 0.829081 0.990622
vt 0.802495 0.990622
vt 0.749863 0.990622
vt 0.697233 0.990624
vt 0.644602 0.990624
vt 0.618553 0.990620
vt 0.591970 0.990624
vt 0.539339 0.990624
vt 0.486707 0.990624
vt 0.434075 0.990622
vt 0.381444 0.990624
vt 0.328812 0.990622
vt 0.276180 0.990622
vt 0.250134 0.990622
vt 0.223549 0.990622
vt 0.197504 0.990624
vt 0.170917 0.990620
vt 0.118286 0.990622
vt 0.092240 0.990624
vt 0.065654 0.990622
vt 0.999999 0.949947
vt 0.960390 0.990622
vt 0.267903 0.302149
vt 0.250000 0.343855
vt 0.250000 0.305137
vt 0.283866 0.293511
vt 0.280474 0.338770
vt 0.328572 0.301333
vt 0.307646 0.324064
vt 0.303450 0.263536
vt 0.304949 0.245447
vt 0.340983 0.273040
vt 0.300493 0.227852
vt 0.343534 0.242250
vt 0.335949 0.212299
vt 0.276242 0.201509
vt 0.319052 0.186435
vt 0.265448 0.157426
vt 0.294670 0.167458
vt 0.240925 0.195615
vt 0.259075 0.195615
vt 0.223758 0.201509
vt 0.234552 0.157426
vt 0.209435 0.212657
vt 0.205330 0.167458
vt 0.199508 0.227852
vt 0.180949 0.186435
vt 0.195052 0.245447
vt 0.164051 0.212300
vt 0.156466 0.242250
vt 0.203841 0.280157
vt 0.159018 0.273040
vt 0.216134 0.293511
vt 0.171428 0.301333
vt 0.219526 0.338769
vt 0.192354 0.324064
vt 0.232097 0.302150
vt 0.013023 0.990624
vt 0.000000 0.949947
vt 0.934342 0.990620
vt 0.849958 0.510216
vt 0.797327 0.510216
vt 0.744695 0.510216
vt 0.692064 0.510216
vt 0.639432 0.510216
vt 0.586801 0.510216
vt 0.481537 0.510216
vt 0.428906 0.510216
vt 0.323643 0.510216
vt 0.271011 0.510216
vt 0.165748 0.510216
vt 0.113116 0.510216
vt 0.060485 0.510216
vt 0.007853 0.510216
vt 0.776449 0.990622
vt 0.723819 0.990624
vt 0.671188 0.990624
vt 0.565923 0.990622
vt 0.513291 0.990622
vt 0.460661 0.990622
vt 0.408030 0.990624
vt 0.355398 0.990624
vt 0.302766 0.990622
vt 0.144872 0.990622
vt 0.986975 0.990622
vt 0.039609 0.990624
vn 0.0000 0.4759 -0.8795
vn 0.0000 0.9158 -0.4017
vn 0.0000 0.9966 -0.0826
vn 0.0000 0.9694 0.2455
vn 0.0000 0.8372 0.5469
vn 0.0000 0.6142 0.7891
vn 0.0000 0.3247 0.9458
vn -0.0000 0.0000 1.0000
vn 0.0000 -0.3247 0.9458
vn -0.0000 -0.6142 0.7891
vn -0.0000 -0.8372 0.5469
vn -0.0000 -0.9694 0.2455
vn -0.0000 -0.9966 -0.0826
vn -0.0000 -0.9158 -0.4017
vn -0.0000 -0.7357 -0.6773
vn -0.0000 -0.4759 -0.8795
vn 0.0000 -0.1646 -0.9864
vn 0.0000 0.7357 -0.6773
vn -0.5899 0.3843 -0.7101
vn 1.0000 0.0000 0.0000
vn 0.6791 0.5401 -0.4972
vn 0.6791 0.6722 -0.2949
vn 0.6791 0.7316 -0.0606
vn 0.6791 0.7116 0.1802
vn 0.6791 0.6145 0.4015
vn 0.6791 0.4509 0.5793
vn 0.6791 0.2384 0.6943
vn 0.6791 0.0000 0.7341
vn 0.6791 -0.2384 0.6943
vn 0.6791 -0.4509 0.5793
vn 0.6791 -0.6145 0.4015
vn 0.6791 -0.7116 0.1802
vn 0.6791 -0.7316 -0.0606
vn 0.6791 -0.6722 -0.2949
vn 0.6791 -0.5401 -0.4972
vn 0.6791 -0.3494 -0.6456
vn 0.6791 0.1208 -0.7241
vn 0.6791 0.3494 -0.6456
vn 0.8644 0.0828 -0.4960
vn 0.8644 0.2393 -0.4422
vn 0.8644 0.3700 -0.3406
vn 0.8644 0.4605 -0.2020
vn 0.8644 0.5011 -0.0415
vn 0.8644 0.4875 0.1234
vn 0.8644 0.4210 0.2750
vn 0.8644 0.3089 0.3968
vn 0.8644 0.1633 0.4756
vn 0.8644 0.0000 0.5028
vn 0.8644 -0.1633 0.4756
vn 0.8644 -0.3089 0.3968
vn 0.8644 -0.4210 0.2750
vn 0.8644 -0.4875 0.1234
vn 0.8644 -0.5011 -0.0415
vn 0.8644 -0.4605 -0.2020
vn 0.8644 -0.3700 -0.3406
vn 0.8644 -0.2393 -0.4422
vn 0.8644 -0.0828 -0.4960
vn 0.6791 -0.1208 -0.7241
vn -1.0000 0.0000 0.0000
vn -0.5899 0.5941 -0.5469
vn -0.5899 0.7394 -0.3243
vn -0.5899 0.8047 -0.0667
vn -0.5899 0.7827 0.1982
vn -0.5899 0.6760 0.4416
vn -0.5899 0.4959 0.6372
vn -0.5899 0.2622 0.7637
vn -0.5899 0.0000 0.8074
vn -0.5899 -0.2622 0.7637
vn -0.5899 -0.4959 0.6372
vn -0.5899 -0.6760 0.4416
vn -0.5899 -0.7827 0.1982
vn -0.5899 -0.8047 -0.0667
vn -0.5899 -0.7394 -0.3243
vn -0.5899 -0.5941 -0.5469
vn -0.5899 -0.3843 -0.7101
vn -0.5899 0.1329 -0.7964
vn 0.0000 0.1646 -0.9864
vn -0.9058 0.0697 -0.4180
vn -0.9058 0.2017 -0.3727
vn -0.9058 0.3118 -0.2870
vn -0.9058 0.3880 -0.1702
vn -0.9058 0.4223 -0.0350
vn -0.9058 0.4108 0.1040
vn -0.9058 0.3547 0.2318
vn -0.9058 0.2603 0.3344
vn -0.9058 0.1376 0.4008
vn -0.9058 0.0000 0.4237
vn -0.9058 -0.1376 0.4008
vn -0.9058 -0.2603 0.3344
vn -0.9058 -0.3547 0.2318
vn -0.9058 -0.4108 0.1040
vn -0.9058 -0.4223 -0.0350
vn -0.9058 -0.3880 -0.1702
vn -0.9058 -0.3118 -0.2870
vn -0.9058 -0.2017 -0.3727
vn -0.9058 -0.0697 -0.4180
vn -0.5899 -0.1329 -0.7964
vn -0.9058 0.3881 -0.1702
usemtl None
s off
f 59/1/1 3/2/1 2/3/1
f 61/4/2 5/5/2 4/6/2
f 62/7/3 6/8/3 5/5/3
f 63/9/4 7/10/4 6/8/4
f 64/11/5 8/12/5 7/10/5
f 65/13/6 9/14/6 8/12/6
f 66/15/7 10/16/7 9/14/7
f 67/17/8 11/18/8 10/16/8
f 68/19/9 12/20/9 11/18/9
f 69/21/10 13/22/10 12/20/10
f 70/23/11 14/24/11 13/22/11
f 71/25/12 15/26/12 14/24/12
f 72/27/13 16/28/13 15/26/13
f 73/29/14 17/30/14 16/28/14
f 74/31/15 18/32/15 17/30/15
f 75/33/16 19/34/16 18/32/16
f 76/35/17 1/36/17 19/34/17
f 60/37/18 4/6/18 3/2/18
f 59/1/19 82/38/19 60/37/19
f 30/39/20 46/40/20 54/41/20
f 4/6/21 25/42/21 3/2/21
f 5/5/22 27/43/22 4/6/22
f 6/8/23 29/44/23 5/5/23
f 7/10/24 31/45/24 6/8/24
f 8/12/25 33/46/25 7/10/25
f 9/14/26 35/47/26 8/12/26
f 9/14/27 39/48/27 37/49/27
f 11/18/28 39/50/28 10/16/28
f 12/20/29 41/51/29 11/18/29
f 12/20/30 45/52/30 43/53/30
f 14/24/31 45/54/31 13/22/31
f 15/26/32 47/55/32 14/24/32
f 15/26/33 51/56/33 49/57/33
f 17/30/34 51/58/34 16/28/34
f 18/32/35 53/59/35 17/30/35
f 19/34/36 55/60/36 18/32/36
f 1/61/37 23/62/37 21/63/37
f 2/3/38 25/64/38 23/65/38
f 20/66/39 23/67/39 22/68/39
f 24/69/40 23/67/40 25/70/40
f 24/69/41 27/71/41 26/72/41
f 26/72/42 29/73/42 28/74/42
f 30/39/43 29/73/43 31/75/43
f 30/39/44 33/76/44 32/77/44
f 32/77/45 35/78/45 34/79/45
f 36/80/46 35/78/46 37/81/46
f 38/82/47 37/81/47 39/83/47
f 38/82/48 41/84/48 40/85/48
f 40/85/49 43/86/49 42/87/49
f 44/88/50 43/86/50 45/89/50
f 46/40/51 45/89/51 47/90/51
f 46/40/52 49/91/52 48/92/52
f 50/93/53 49/91/53 51/94/53
f 50/93/54 53/95/54 52/96/54
f 52/96/55 55/97/55 54/41/55
f 54/41/56 57/98/56 56/99/56
f 56/99/57 21/100/57 20/66/57
f 1/36/58 57/101/58 19/34/58
f 107/102/59 91/103/59 83/104/59
f 61/4/60 82/105/60 84/106/60
f 62/7/61 84/107/61 86/108/61
f 62/7/62 88/109/62 63/9/62
f 63/9/63 90/110/63 64/11/63
f 64/11/64 92/111/64 65/13/64
f 66/15/65 92/112/65 94/113/65
f 66/15/66 96/114/66 67/17/66
f 67/17/67 98/115/67 68/19/67
f 68/19/68 100/116/68 69/21/68
f 69/21/69 102/117/69 70/23/69
f 70/23/70 104/118/70 71/25/70
f 71/25/71 106/119/71 72/27/71
f 73/29/72 106/120/72 108/121/72
f 74/31/73 108/122/73 110/123/73
f 74/31/74 112/124/74 75/33/74
f 76/35/75 112/125/75 114/126/75
f 58/127/76 80/128/76 59/1/76
f 58/127/77 2/3/77 1/61/77
f 79/129/78 78/130/78 77/131/78
f 81/132/79 80/133/79 79/129/79
f 81/132/80 84/134/80 82/135/80
f 85/136/81 84/134/81 83/104/81
f 87/137/82 86/138/82 85/136/82
f 89/139/83 88/140/83 87/137/83
f 91/103/84 90/141/84 89/139/84
f 93/142/85 92/143/85 91/103/85
f 93/142/86 96/144/86 94/145/86
f 97/146/87 96/144/87 95/147/87
f 99/148/88 98/149/88 97/146/88
f 101/150/89 100/151/89 99/148/89
f 103/152/90 102/153/90 101/150/90
f 105/154/91 104/155/91 103/152/91
f 107/102/92 106/156/92 105/154/92
f 109/157/93 108/158/93 107/102/93
f 111/159/94 110/160/94 109/157/94
f 111/159/95 114/161/95 112/162/95
f 77/131/96 114/161/96 113/163/96
f 76/35/97 78/164/97 58/165/97
f 59/1/1 60/37/1 3/2/1
f 61/4/2 62/7/2 5/5/2
f 62/7/3 63/9/3 6/8/3
f 63/9/4 64/11/4 7/10/4
f 64/11/5 65/13/5 8/12/5
f 65/13/6 66/15/6 9/14/6
f 66/15/7 67/17/7 10/16/7
f 67/17/8 68/19/8 11/18/8
f 68/19/9 69/21/9 12/20/9
f 69/21/10 70/23/10 13/22/10
f 70/23/11 71/25/11 14/24/11
f 71/25/12 72/27/12 15/26/12
f 72/27/13 73/29/13 16/28/13
f 73/29/14 74/31/14 17/30/14
f 74/31/15 75/33/15 18/32/15
f 75/33/16 76/35/16 19/34/16
f 76/35/17 58/165/17 1/36/17
f 60/37/18 61/4/18 4/6/18
f 59/1/19 80/166/19 82/38/19
f 56/99/20 20/66/20 22/68/20
f 22/68/20 24/69/20 26/72/20
f 26/72/20 28/74/20 30/39/20
f 30/39/20 32/77/20 38/82/20
f 32/77/20 34/79/20 38/82/20
f 34/79/20 36/80/20 38/82/20
f 38/82/20 40/85/20 42/87/20
f 42/87/20 44/88/20 46/40/20
f 46/40/20 48/92/20 50/93/20
f 50/93/20 52/96/20 54/41/20
f 54/41/20 56/99/20 22/68/20
f 22/68/20 26/72/20 54/41/20
f 26/72/20 30/39/20 54/41/20
f 38/82/20 42/87/20 30/39/20
f 42/87/20 46/40/20 30/39/20
f 46/40/20 50/93/20 54/41/20
f 4/6/21 27/167/21 25/42/21
f 5/5/22 29/168/22 27/43/22
f 6/8/23 31/169/23 29/44/23
f 7/10/24 33/170/24 31/45/24
f 8/12/25 35/171/25 33/46/25
f 9/14/26 37/172/26 35/47/26
f 9/14/27 10/16/27 39/48/27
f 11/18/28 41/173/28 39/50/28
f 12/20/29 43/174/29 41/51/29
f 12/20/30 13/22/30 45/52/30
f 14/24/31 47/175/31 45/54/31
f 15/26/32 49/176/32 47/55/32
f 15/26/33 16/28/33 51/56/33
f 17/30/34 53/177/34 51/58/34
f 18/32/35 55/178/35 53/59/35
f 19/34/36 57/179/36 55/60/36
f 1/61/37 2/3/37 23/62/37
f 2/3/38 3/2/38 25/64/38
f 20/66/39 21/100/39 23/67/39
f 24/69/40 22/68/40 23/67/40
f 24/69/41 25/70/41 27/71/41
f 26/72/42 27/71/42 29/73/42
f 30/39/43 28/74/43 29/73/43
f 30/39/44 31/75/44 33/76/44
f 32/77/45 33/76/45 35/78/45
f 36/80/46 34/79/46 35/78/46
f 38/82/47 36/80/47 37/81/47
f 38/82/48 39/83/48 41/84/48
f 40/85/49 41/84/49 43/86/49
f 44/88/50 42/87/50 43/86/50
f 46/40/51 44/88/51 45/89/51
f 46/40/52 47/90/52 49/91/52
f 50/93/53 48/92/53 49/91/53
f 50/93/54 51/94/54 53/95/54
f 52/96/55 53/95/55 55/97/55
f 54/41/56 55/97/56 57/98/56
f 56/99/57 57/98/57 21/100/57
f 1/36/58 21/180/58 57/101/58
f 81/132/59 79/129/59 83/104/59
f 79/129/59 77/131/59 83/104/59
f 77/131/59 113/163/59 111/159/59
f 111/159/59 109/157/59 107/102/59
f 107/102/59 105/154/59 103/152/59
f 103/152/59 101/150/59 99/148/59
f 99/148/59 97/146/59 91/103/59
f 97/146/59 95/147/59 91/103/59
f 95/147/59 93/142/59 91/103/59
f 91/103/59 89/139/59 83/104/59
f 89/139/59 87/137/59 83/104/59
f 87/137/59 85/136/59 83/104/59
f 77/131/59 111/159/59 83/104/59
f 111/159/59 107/102/59 83/104/59
f 107/102/59 103/152/59 91/103/59
f 103/152/59 99/148/59 91/103/59
f 61/4/60 60/37/60 82/105/60
f 62/7/61 61/4/61 84/107/61
f 62/7/62 86/181/62 88/109/62
f 63/9/63 88/182/63 90/110/63
f 64/11/64 90/183/64 92/111/64
f 66/15/65 65/13/65 92/112/65
f 66/15/66 94/184/66 96/114/66
f 67/17/67 96/185/67 98/115/67
f 68/19/68 98/186/68 100/116/68
f 69/21/69 100/187/69 102/117/69
f 70/23/70 102/188/70 104/118/70
f 71/25/71 104/189/71 106/119/71
f 73/29/72 72/27/72 106/120/72
f 74/31/73 73/29/73 108/122/73
f 74/31/74 110/190/74 112/124/74
f 76/35/75 75/33/75 112/125/75
f 58/127/76 78/191/76 80/128/76
f 58/127/77 59/1/77 2/3/77
f 79/129/78 80/133/78 78/130/78
f 81/132/79 82/135/79 80/133/79
f 81/132/80 83/104/80 84/134/80
f 85/136/98 86/138/98 84/134/98
f 87/137/82 88/140/82 86/138/82
f 89/139/83 90/141/83 88/140/83
f 91/103/84 92/143/84 90/141/84
f 93/142/85 94/145/85 92/143/85
f 93/142/86 95/147/86 96/144/86
f 97/146/87 98/149/87 96/144/87
f 99/148/88 100/151/88 98/149/88
f 101/150/89 102/153/89 100/151/89
f 103/152/90 104/155/90 102/153/90
f 105/154/91 106/156/91 104/155/91
f 107/102/92 108/158/92 106/156/92
f 109/157/93 110/160/93 108/158/93
f 111/159/94 112/162/94 110/160/94
f 111/159/95 113/163/95 114/161/95
f 77/131/96 78/130/96 114/161/96
f 76/35/97 114/192/97 78/164/97
